<svg width="20" height="21" viewBox="0 0 20 21" fill="none" xmlns="http://www.w3.org/2000/svg">
<path d="M0.236538 10.266C0.35403 7.15113 1.93261 4.27821 4.81838 2.37977C4.8269 2.38297 4.90166 2.35574 4.86751 2.42038C4.63891 2.63233 0.529168 7.4871 4.31207 11.3191C4.31207 11.3191 6.29964 13.2299 7.84088 11.4168C7.84088 11.4168 9.36175 9.44798 7.82164 6.46336C7.82164 6.46336 7.43182 5.48881 6.02731 4.88431L7.15843 3.6363C7.15843 3.6363 8.11427 4.04642 8.85443 5.15877C8.85443 5.15877 8.89391 3.98764 7.99678 2.7397L9.7505 0.75L11.4866 2.721C11.4866 2.721 10.6882 3.85205 10.6295 5.17747C10.6295 5.17747 11.1747 4.28034 12.3453 3.63637L13.456 4.88437C13.456 4.88437 12.388 5.23632 11.6724 6.45064C11.0572 7.57577 10.5836 9.98205 11.7001 11.458C11.7001 11.458 12.9497 13.2299 15.1478 11.3535C15.1478 11.3535 19.1892 7.73227 14.7333 2.4968C14.7333 2.4968 14.4898 2.28159 14.7632 2.39854C16.7327 3.83241 19.0909 5.72332 19.3344 10.4424C19.2383 16.1649 15.4061 20.25 9.81034 20.25C4.33137 20.25 0.0721161 15.6778 0.236538 10.266Z" fill="#C53030"/>
</svg>
