<svg width="22" height="23" viewBox="0 0 22 23" fill="none" xmlns="http://www.w3.org/2000/svg">
<path d="M11 0.874054C16.8655 0.874056 21.6259 5.63448 21.6259 11.5C21.6259 17.3655 16.8655 22.126 11 22.126C5.13445 22.126 0.374023 17.3655 0.374023 11.5C0.374019 5.63448 5.13445 0.874054 11 0.874054Z" stroke="#3B3B3B" stroke-width="0.732824"/>
<path d="M12.224 2.20688V3.2981C13.5971 3.50116 14.8607 4.03882 15.9282 4.82902L16.6988 4.05955C15.4248 3.08188 13.8935 2.42471 12.224 2.20688ZM9.77015 2.21031C8.10161 2.4294 6.57182 3.08794 5.29877 4.06528L6.0648 4.83474H6.06824C7.13512 4.04403 8.3975 3.50234 9.77015 3.2981V2.21031ZM10.3129 4.43398V8.10726C9.8679 8.1971 9.45195 8.37046 9.08656 8.61337L6.48847 6.01642L5.51633 6.98856L8.11671 9.58894C7.87446 9.95387 7.69799 10.3688 7.60831 10.813H3.93389V12.187H7.60831C7.69797 12.631 7.87462 13.0429 8.11671 13.4076L5.51633 16.0092L6.48847 16.9813L9.08656 14.3832C9.45195 14.6261 9.8679 14.8018 10.3129 14.8916V18.566H11.6869V14.8916C12.1324 14.8017 12.5453 14.623 12.911 14.3798L15.5114 16.9813L16.4835 16.0092L13.8831 13.4076C14.1251 13.0429 14.303 12.6309 14.3927 12.187H18.0659V10.813H14.3927C14.303 10.3689 14.1253 9.95381 13.8831 9.58894L16.4835 6.98856L15.5114 6.01642L12.911 8.6168C12.5453 8.37354 12.1324 8.19718 11.6869 8.10726V4.43398H10.3129ZM18.4346 5.79543L17.6652 6.56489C18.4574 7.6328 18.9976 8.89926 19.2018 10.2737H20.293C20.074 8.60321 19.4143 7.06958 18.4346 5.79543ZM3.56175 5.80115C2.58412 7.07408 1.92564 8.60511 1.70679 10.2737H2.79915C3.00312 8.90149 3.54185 7.63859 4.33236 6.57176L3.56175 5.80115ZM1.70679 12.7263C1.92502 14.3947 2.58238 15.9256 3.55946 17.1989L4.32892 16.4283C3.5393 15.3616 3.00255 14.0983 2.79915 12.7263H1.70679ZM19.2018 12.7263C18.9975 14.0999 18.4571 15.3637 17.6652 16.4317L18.4346 17.2012C19.4133 15.9274 20.0737 14.3958 20.293 12.7263H19.2018ZM6.0648 18.1653L5.29534 18.9347C6.56872 19.9138 8.10085 20.5737 9.77015 20.7931V19.7008C8.3969 19.4962 7.13193 18.9569 6.0648 18.1653ZM15.9282 18.1676C14.8603 18.9585 13.5977 19.5009 12.224 19.7042V20.7931C13.8936 20.5751 15.4248 19.9158 16.6988 18.9382L15.9316 18.1676H15.9282Z" fill="#3B3B3B"/>
</svg>
