<svg width="24" height="23" viewBox="0 0 24 23" fill="none" xmlns="http://www.w3.org/2000/svg">
<path fill-rule="evenodd" clip-rule="evenodd" d="M11.6927 14.6786C11.4996 14.3968 10.4694 12.8933 10.4694 12.8933L11.2545 15.0526L8.82057 15.4059L11.2545 15.7593L10.3123 17.6044C10.3123 17.6044 11.4878 16.3687 11.6539 16.194C11.5855 18.8696 11.5686 19.5281 11.5686 19.5281C11.5686 19.5281 5.56213 16.7407 8.89908 10.577C8.89908 10.577 4.73769 5.9837 8.50648 3.15706C8.50648 3.15706 2.06812 7.04367 6.151 13.7177C6.151 13.7177 2.77478 10.42 4.54139 7.08291C4.54139 7.08291 1.47926 11.4015 5.20878 16.1519C5.20878 16.1519 4.18809 15.5237 3.28516 13.1289C3.28516 13.1289 3.9438 20.2581 11.92 20.3516C11.92 20.3526 11.92 20.3526 11.92 20.3526C11.9466 20.3526 11.9731 20.3524 11.9995 20.3523C12.0259 20.3525 12.0524 20.3526 12.079 20.3526C12.079 20.3526 12.079 20.3526 12.079 20.3516C20.0552 20.2581 20.7138 13.1289 20.7138 13.1289C19.8109 15.5237 18.7902 16.1519 18.7902 16.1519C22.5197 11.4015 19.4576 7.08291 19.4576 7.08291C21.2242 10.42 17.848 13.7177 17.848 13.7177C21.9308 7.04367 15.4925 3.15706 15.4925 3.15706C19.2613 5.9837 15.0999 10.577 15.0999 10.577C18.4368 16.7407 12.4303 19.5281 12.4303 19.5281C12.4303 19.5281 12.4135 18.8696 12.345 16.194C12.5111 16.3687 13.6866 17.6044 13.6866 17.6044L12.7444 15.7593L15.1784 15.4059L12.7444 15.0526L13.5295 12.8933C13.5295 12.8933 12.4994 14.3968 12.3063 14.6786C12.2188 11.261 12.0019 2.78118 12.0009 2.74116C12.0005 2.64712 12.0005 2.64661 12.0005 2.64661C12.0005 2.64661 12.0005 2.64669 11.9995 2.68569C11.9985 2.6467 11.9985 2.64661 11.9985 2.64661C11.9985 2.64661 11.9985 2.64712 11.998 2.74116C11.9963 2.80804 11.7799 11.2687 11.6927 14.6786" fill="#276749"/>
<path d="M12.0001 0.25C5.78683 0.25 0.75 5.28673 0.75 11.5C0.75 17.7132 5.78683 22.75 12.0001 22.75C18.2133 22.75 23.25 17.7132 23.25 11.5C23.25 5.28673 18.2133 0.25 12.0001 0.25V0.25Z" stroke="#276749" stroke-width="0.00535718" stroke-miterlimit="10"/>
<path fill-rule="evenodd" clip-rule="evenodd" d="M12.0001 0.25C5.78692 0.25 0.75 5.28684 0.75 11.5C0.75 17.7131 5.78692 22.75 12.0001 22.75C18.2132 22.75 23.25 17.7131 23.25 11.5C23.25 5.28684 18.2132 0.25 12.0001 0.25V0.25ZM12.0001 1.59775C17.4688 1.59775 21.9023 6.03122 21.9023 11.5C21.9023 16.9687 17.4688 21.4022 12.0001 21.4022C6.5313 21.4022 2.09784 16.9687 2.09784 11.5C2.09784 6.03122 6.5313 1.59775 12.0001 1.59775" fill="#276749"/>
</svg>
