<svg width="20" height="20" viewBox="0 0 20 20" fill="none" xmlns="http://www.w3.org/2000/svg">
<path d="M11.224 0.706879V1.7981C12.5971 2.00116 13.8607 2.53882 14.9282 3.32902L15.6988 2.55955C14.4248 1.58188 12.8935 0.92471 11.224 0.706879ZM8.77015 0.710314C7.10161 0.9294 5.57182 1.58794 4.29877 2.56528L5.0648 3.33474H5.06824C6.13512 2.54403 7.3975 2.00234 8.77015 1.7981V0.710314ZM9.31289 2.93398V6.60726C8.8679 6.6971 8.45195 6.87046 8.08656 7.11337L5.48847 4.51642L4.51633 5.48856L7.11671 8.08894C6.87446 8.45387 6.69799 8.86877 6.60831 9.31299H2.93389V10.687H6.60831C6.69797 11.131 6.87462 11.5429 7.11671 11.9076L4.51633 14.5092L5.48847 15.4813L8.08656 12.8832C8.45195 13.1261 8.8679 13.3018 9.31289 13.3916V17.066H10.6869V13.3916C11.1324 13.3017 11.5453 13.123 11.911 12.8798L14.5114 15.4813L15.4835 14.5092L12.8831 11.9076C13.1251 11.5429 13.303 11.1309 13.3927 10.687H17.0659V9.31299H13.3927C13.303 8.86887 13.1253 8.45381 12.8831 8.08894L15.4835 5.48856L14.5114 4.51642L11.911 7.1168C11.5453 6.87354 11.1324 6.69718 10.6869 6.60726V2.93398H9.31289ZM17.4347 4.29543L16.6652 5.06489C17.4574 6.1328 17.9976 7.39926 18.2018 8.77367H19.293C19.074 7.10321 18.4143 5.56958 17.4347 4.29543ZM2.56175 4.30115C1.58412 5.57408 0.925641 7.10511 0.706787 8.77367H1.79915C2.00312 7.40149 2.54185 6.13859 3.33236 5.07176L2.56175 4.30115ZM0.706787 11.2263C0.925019 12.8947 1.58238 14.4256 2.55946 15.6989L3.32892 14.9283C2.5393 13.8616 2.00255 12.5983 1.79915 11.2263H0.706787ZM18.2018 11.2263C17.9975 12.5999 17.4571 13.8637 16.6652 14.9317L17.4347 15.7012C18.4133 14.4274 19.0737 12.8958 19.293 11.2263H18.2018ZM5.0648 16.6653L4.29534 17.4347C5.56872 18.4138 7.10085 19.0737 8.77015 19.2931V18.2008C7.3969 17.9962 6.13193 17.4569 5.0648 16.6653ZM14.9282 16.6676C13.8603 17.4585 12.5977 18.0009 11.224 18.2042V19.2931C12.8936 19.0751 14.4248 18.4158 15.6988 17.4382L14.9316 16.6676H14.9282Z" fill="#757575"/>
</svg>
