<svg width="124" height="98" viewBox="0 0 124 98" fill="none" xmlns="http://www.w3.org/2000/svg">
<g opacity="0.15">
<path d="M67.9995 -10.7709C100.993 -10.7709 127.77 16.0065 127.77 49.0001C127.77 81.9937 100.993 108.771 67.9995 108.771C35.0059 108.771 8.22852 81.9937 8.22852 49.0001C8.22849 16.0065 35.0059 -10.7709 67.9995 -10.7709Z" stroke="#EDEDED" stroke-width="4.12214"/>
<path d="M74.8847 -3.27408V2.86404C82.6086 4.00625 89.7164 7.03057 95.7208 11.4754L100.055 7.1472C92.8892 1.64779 84.2756 -2.04878 74.8847 -3.27408ZM61.082 -3.25476C51.6965 -2.02239 43.0914 1.68188 35.9305 7.1794L40.2394 11.5076H40.2587C46.26 7.05988 53.3609 4.01289 61.082 2.86404V-3.25476ZM64.1349 9.25335V29.9156C61.6318 30.4209 59.2921 31.3961 57.2368 32.7624L42.6225 18.1546L37.1543 23.6229L51.7814 38.25C50.4188 40.3027 49.4261 42.6365 48.9217 45.1353H28.253V52.8643H48.9217C49.426 55.3618 50.4196 57.6782 51.7814 59.7302L37.1543 74.3638L42.6225 79.8321L57.2368 65.2178C59.2921 66.5841 61.6318 67.5722 64.1349 68.0775V88.7462H71.8639V68.0775C74.3694 67.5717 76.6924 66.5668 78.7492 65.1985L93.3763 79.8321L98.8446 74.3638L84.2175 59.7302C85.5787 57.6786 86.5794 55.3612 87.0836 52.8643H107.746V45.1353H87.0836C86.5793 42.6371 85.5796 40.3024 84.2175 38.25L98.8446 23.6229L93.3763 18.1546L78.7492 32.7817C76.6924 31.4134 74.3694 30.4214 71.8639 29.9156V9.25335H64.1349ZM109.82 16.9115L105.492 21.2397C109.948 27.2467 112.986 34.3706 114.135 42.1016H120.273C119.041 32.7053 115.33 24.0786 109.82 16.9115ZM26.1597 16.9437C20.6606 24.1039 16.9566 32.7159 15.7256 42.1016H21.8701C23.0175 34.3831 26.0478 27.2793 30.4944 21.2784L26.1597 16.9437ZM15.7256 55.8979C16.9531 65.2823 20.6508 73.8938 26.1469 81.0558L30.4751 76.7211C26.0335 70.7211 23.0143 63.6153 21.8701 55.8979H15.7256ZM114.135 55.8979C112.986 63.6239 109.946 70.7333 105.492 76.7404L109.82 81.0687C115.325 73.9041 119.039 65.2887 120.273 55.8979H114.135ZM40.2394 86.4919L35.9112 90.8201C43.074 96.3273 51.6922 100.039 61.082 101.274V95.129C53.3575 93.9784 46.242 90.9449 40.2394 86.4919ZM95.7208 86.5048C89.7143 90.9539 82.6118 94.0048 74.8847 95.1484V101.274C84.2766 100.047 92.8892 96.3387 100.055 90.8394L95.7401 86.5048H95.7208Z" fill="#EDEDED"/>
</g>
</svg>
