<svg width="124" height="98" viewBox="0 0 124 98" fill="none" xmlns="http://www.w3.org/2000/svg">
<g opacity="0.15">
<path fill-rule="evenodd" clip-rule="evenodd" d="M65.2713 66.8799C64.1851 65.2946 58.3906 56.8372 58.3906 56.8372L62.8068 68.9831L49.1157 70.9707L62.8068 72.9583L57.5069 83.3374C57.5069 83.3374 64.1191 76.3862 65.0532 75.404C64.6683 90.4542 64.5736 94.1581 64.5736 94.1581C64.5736 94.1581 30.787 78.479 49.5573 43.8081C49.5573 43.8081 26.1495 17.9709 47.349 2.07098C47.349 2.07098 11.1332 23.9332 34.0994 61.4749C34.0994 61.4749 15.1081 42.925 25.0453 24.1539C25.0453 24.1539 7.82085 48.4457 28.7994 75.1668C28.7994 75.1668 23.058 71.6331 17.979 58.1625C17.979 58.1625 21.6839 98.2642 66.5499 98.7904C66.5498 98.7957 66.5498 98.7957 66.5498 98.7957C66.6994 98.7957 66.8485 98.7947 66.9971 98.7943C67.1456 98.7952 67.2948 98.7957 67.4442 98.7957C67.4442 98.7957 67.4442 98.7957 67.4442 98.7904C112.31 98.2642 116.015 58.1625 116.015 58.1625C110.936 71.6331 105.195 75.1668 105.195 75.1668C126.173 48.4457 108.949 24.1539 108.949 24.1539C118.886 42.925 99.8947 61.4749 99.8947 61.4749C122.861 23.9332 86.6451 2.07098 86.6451 2.07098C107.845 17.9709 84.4368 43.8081 84.4368 43.8081C103.207 78.479 69.4206 94.1581 69.4206 94.1581C69.4206 94.1581 69.3258 90.4542 68.9408 75.404C69.875 76.3862 76.4872 83.3374 76.4872 83.3374L71.1873 72.9583L84.8784 70.9707L71.1873 68.9831L75.6035 56.8372C75.6035 56.8372 69.8089 65.2946 68.7227 66.8799C68.2309 47.6556 67.0108 -0.0432992 67.0049 -0.268426C67.0027 -0.797405 67.0027 -0.800293 67.0027 -0.800293C67.0027 -0.800293 67.0027 -0.799822 66.997 -0.580439C66.9914 -0.79979 66.9914 -0.800293 66.9914 -0.800293C66.9914 -0.800293 66.9914 -0.797402 66.989 -0.268426C66.9795 0.107748 65.762 47.6992 65.2714 66.8799" fill="#EDEDED"/>
<path d="M67.0003 -14.2812C32.0509 -14.2812 3.71875 14.0503 3.71875 48.9999C3.71875 83.9493 32.0509 112.281 67.0003 112.281C101.95 112.281 130.281 83.9493 130.281 48.9999C130.281 14.0503 101.95 -14.2812 67.0003 -14.2812V-14.2812Z" stroke="#EDEDED" stroke-width="0.0301341" stroke-miterlimit="10"/>
<path fill-rule="evenodd" clip-rule="evenodd" d="M67.0003 -14.2812C32.0514 -14.2812 3.71875 14.051 3.71875 48.9999C3.71875 83.9488 32.0514 112.281 67.0003 112.281C101.949 112.281 130.281 83.9488 130.281 48.9999C130.281 14.051 101.949 -14.2812 67.0003 -14.2812V-14.2812ZM67.0003 -6.70014C97.7621 -6.70014 122.7 18.2381 122.7 48.9999C122.7 79.7616 97.7621 104.7 67.0003 104.7C36.2386 104.7 11.3003 79.7616 11.3003 48.9999C11.3003 18.2381 36.2386 -6.70014 67.0003 -6.70014" fill="#EDEDED"/>
</g>
</svg>
